<svg preserveAspectRatio="none" overflow="visible" style="display: block;" width="18.2236" height="11.1514" viewBox="0 0 18.2236 11.1514" fill="none" xmlns="http://www.w3.org/2000/svg">
<path id="Cellular Connection" d="M2.14355 6.96973C2.7356 6.96973 3.21582 7.43824 3.21582 8.01562V10.1064C3.21577 10.6838 2.73557 11.1514 2.14355 11.1514H1.07227C0.480247 11.1514 4.94094e-05 10.6838 0 10.1064V8.01562C0 7.43824 0.480216 6.96973 1.07227 6.96973H2.14355ZM7.14648 4.87891C7.73853 4.87891 8.21875 5.34742 8.21875 5.9248V10.1064C8.2187 10.6838 7.7385 11.1514 7.14648 11.1514H6.07422C5.48242 11.1511 5.00298 10.6836 5.00293 10.1064V5.9248C5.00293 5.34757 5.48239 4.87916 6.07422 4.87891H7.14648ZM12.1494 2.43945C12.7414 2.43948 13.2217 2.90798 13.2217 3.48535V10.1064C13.2216 10.6838 12.7414 11.1513 12.1494 11.1514H11.0771C10.4852 11.1513 10.0049 10.6837 10.0049 10.1064V3.48535C10.0049 2.90803 10.4852 2.43957 11.0771 2.43945H12.1494ZM17.1523 0C17.7442 0.000164914 18.2236 0.468612 18.2236 1.0459V10.1064C18.2236 10.6837 17.7442 11.1512 17.1523 11.1514H16.0801C15.4881 11.1514 15.0079 10.6838 15.0078 10.1064V1.0459C15.0078 0.46851 15.488 0 16.0801 0H17.1523Z" fill="black"/>
</svg>
